<?xml version="1.0" encoding="iso-8859-1"?>
<!-- Generator: Adobe Illustrator 23.0.1, SVG Export Plug-In . SVG Version: 6.00 Build 0)  -->
<svg version="1.1" id="Layer_1" xmlns="http://www.w3.org/2000/svg" xmlns:xlink="http://www.w3.org/1999/xlink" x="0px" y="0px"
	 viewBox="0 0 505.829 500" style="enable-background:new 0 0 505.829 500;" xml:space="preserve">
<path d="M253.818,42.244c-2.099,0-3.792-1.71-3.792-3.792V3.809c0-2.099,1.693-3.809,3.792-3.809
	s3.792,1.711,3.792,3.809v34.643C257.611,40.534,255.917,42.244,253.818,42.244"/>
<path d="M219.488,57.69c-1.27,0-2.521-0.634-3.245-1.816l-18.132-29.509
	c-1.094-1.781-0.547-4.127,1.252-5.221c1.781-1.094,4.127-0.547,5.221,1.252l18.15,29.509c1.094,1.781,0.528,4.127-1.253,5.221
	C220.864,57.514,220.177,57.69,219.488,57.69"/>
<path d="M288.139,57.69c-0.688,0-1.358-0.176-1.976-0.564c-1.799-1.094-2.363-3.439-1.252-5.221
	l18.131-29.509c1.094-1.799,3.44-2.346,5.24-1.252c1.781,1.094,2.328,3.439,1.235,5.221l-18.133,29.509
	C290.661,57.055,289.427,57.69,288.139,57.69"/>
<path d="M212.927,102.467l-5.961,20.707c-0.653,2.222-2.646,3.811-4.992,3.934
	c-1.817,0.088-3.316,1.446-3.564,3.263l-4.321,30.321h-60.164l19.331-43.338c0.741-1.658,0.194-3.616-1.287-4.656
	c-1.923-1.358-2.77-3.757-2.135-5.997l5.979-20.69c0.83-2.893,3.863-4.586,6.756-3.739l46.619,13.423
	C212.098,96.54,213.756,99.574,212.927,102.467 M184.406,228.687c-0.318,1.217-0.017,2.558,0.864,3.528
	c15.98,17.779,22.312,41.626,17.409,64.715L61.008,256.114c8.149-22.154,26.175-38.98,49.193-45.524
	c1.217-0.335,2.134-1.253,2.54-2.399l17.868-40.074h62.422L184.406,228.687z M167.438,419.974l-8.855,30.762L16.525,409.815
	l12.946-44.907l29.245-101.545l142.042,40.921L167.438,419.974z M150.363,479.257c-1.34,4.639-4.41,8.484-8.678,10.848
	c-4.251,2.346-9.155,2.91-13.793,1.57L20.722,460.808c-4.621-1.341-8.483-4.427-10.829-8.679c-2.364-4.25-2.911-9.154-1.588-13.793
	l6.122-21.219l142.041,40.921L150.363,479.257z M219.101,94.635c-1.693-3.069-4.462-5.273-7.796-6.244l-46.619-13.423
	c-3.351-0.97-6.879-0.564-9.947,1.129c-3.052,1.693-5.275,4.462-6.226,7.796l-5.979,20.708c-1.236,4.287-0.177,8.855,2.681,12.135
	l-38.839,87.063c-25.84,7.955-45.754,27.798-53.797,53.55c-0.036,0.088-0.088,0.177-0.106,0.265l-0.423,1.464
	c-0.017,0.017-0.017,0.035-0.017,0.052L17.917,377.537l-9.737,33.83l-7.178,24.87c-1.887,6.579-1.094,13.529,2.24,19.56
	c3.333,6.051,8.801,10.407,15.38,12.312l107.154,30.868c2.381,0.688,4.78,1.023,7.126,1.023c11.201,0,21.519-7.355,24.764-18.626
	l7.162-24.887l44.307-153.737c0.017-0.105,0.035-0.211,0.053-0.299c6.879-26.087,0.565-53.462-17.074-73.94l13.44-94.383
	c4.145-1.27,7.478-4.568,8.713-8.855l5.962-20.707C221.2,101.232,220.793,97.705,219.101,94.635"/>
<path d="M78.932,332.08l68.155,19.631c0.353,0.106,0.705,0.158,1.058,0.158c1.658,0,3.175-1.094,3.651-2.752
	c0.583-2.011-0.582-4.127-2.593-4.709l-68.172-19.632c-2.011-0.582-4.11,0.582-4.692,2.592
	C75.757,329.399,76.921,331.497,78.932,332.08"/>
<path d="M73.515,350.885l68.154,19.632c0.353,0.106,0.706,0.159,1.059,0.159c1.658,0,3.175-1.094,3.651-2.752
	c0.582-2.011-0.582-4.127-2.592-4.709l-68.173-19.632c-2.011-0.583-4.11,0.582-4.692,2.592
	C70.34,348.204,71.505,350.303,73.515,350.885"/>
<path d="M138.367,382.029c-2.028-0.582-4.127,0.583-4.709,2.593c-0.582,2.028,0.582,4.127,2.593,4.709
	c0.353,0.088,0.706,0.142,1.059,0.142c1.658,0,3.175-1.076,3.651-2.734C141.543,384.711,140.379,382.612,138.367,382.029"/>
<path d="M113.314,374.808c-2.011-0.582-4.11,0.582-4.709,2.592c-0.564,2.029,0.599,4.128,2.61,4.71
	c0.352,0.106,0.706,0.141,1.059,0.141c1.658,0,3.157-1.076,3.651-2.734C116.507,377.506,115.343,375.39,113.314,374.808"/>
<path d="M125.835,378.422c-2.01-0.582-4.11,0.582-4.709,2.592c-0.564,2.029,0.599,4.128,2.611,4.71
	c0.353,0.088,0.705,0.141,1.058,0.141c1.658,0,3.175-1.076,3.651-2.734C129.011,381.103,127.865,379.004,125.835,378.422"/>
<path d="M67.384,369.404c0.229,0.123,0.458,0.212,0.724,0.282l26.404,7.62h0.035l4.163,1.2
	c0.352,0.106,0.705,0.158,1.04,0.158c1.658,0,3.193-1.094,3.651-2.751c0.599-2.029-0.564-4.128-2.594-4.71l-30.62-8.819
	c-2.011-0.583-4.127,0.582-4.692,2.592C64.985,366.758,65.814,368.593,67.384,369.404"/>
<path d="M495.949,452.126c-2.363,4.269-6.209,7.337-10.848,8.678l-107.17,30.868
	c-4.639,1.34-9.525,0.776-13.794-1.571c-4.251-2.346-7.337-6.209-8.66-10.847l-6.12-21.22l142.042-40.921l6.12,21.22
	C498.859,442.972,498.294,447.875,495.949,452.126 M347.24,450.732l-8.854-30.743l-33.318-115.69l142.041-40.938l42.192,146.452
	L347.24,450.732z M320.571,232.21c0.846-0.934,1.146-2.222,0.863-3.403l-8.643-60.694h62.422l17.833,39.987
	c0.389,1.182,1.34,2.134,2.592,2.487c23.001,6.544,41.045,23.371,49.177,45.525l-141.672,40.815
	C298.257,273.838,304.572,249.991,320.571,232.21 M307.412,130.367c-0.247-1.799-1.746-3.175-3.563-3.263
	c-2.328-0.123-4.339-1.712-4.992-3.934l-5.962-20.708c-0.828-2.893,0.847-5.926,3.74-6.773l46.618-13.423
	c1.394-0.405,2.875-0.229,4.163,0.477c1.27,0.705,2.205,1.87,2.61,3.263l5.962,20.708c0.653,2.222-0.212,4.639-2.134,5.979
	c-1.482,1.04-2.011,2.999-1.271,4.657l19.314,43.337h-60.164L307.412,130.367z M504.821,436.234l-7.162-24.87L453.37,257.61
	c-0.035-0.088-0.088-0.176-0.123-0.264c-8.044-25.752-27.957-45.577-53.797-53.55l-38.822-87.063
	c2.839-3.28,3.898-7.831,2.663-12.135l-5.962-20.69c-0.97-3.351-3.176-6.12-6.244-7.813c-3.052-1.694-6.58-2.099-9.931-1.129
	l-46.618,13.423c-6.914,1.993-10.936,9.26-8.943,16.174l5.962,20.708c1.235,4.287,4.568,7.584,8.714,8.855l13.44,94.383
	c-17.621,20.479-23.935,47.852-17.056,73.94c0.018,0.105,0.018,0.193,0.052,0.299L340.996,456.5l7.178,24.871
	c3.246,11.27,13.565,18.626,24.748,18.626c2.346,0,4.744-0.335,7.126-1.024L487.2,468.106c6.596-1.905,12.065-6.261,15.399-12.294
	C505.932,449.763,506.708,442.813,504.821,436.234"/>
<path d="M429.494,327.377c-0.582-2.011-2.699-3.175-4.709-2.593l-68.155,19.631
	c-2.028,0.583-3.193,2.682-2.61,4.693c0.493,1.676,2.01,2.751,3.651,2.751c0.352,0,0.705-0.035,1.058-0.141l68.172-19.632
	C428.912,331.504,430.076,329.388,429.494,327.377"/>
<path d="M434.913,346.182c-0.582-2.011-2.699-3.174-4.709-2.592l-68.155,19.631
	c-2.028,0.582-3.193,2.681-2.61,4.71c0.493,1.657,2.011,2.733,3.651,2.733c0.352,0,0.705-0.035,1.058-0.141l68.172-19.632
	C434.331,350.311,435.494,348.194,434.913,346.182"/>
<path d="M423.097,365.991c-2.011,0.582-3.174,2.698-2.592,4.71c0.476,1.657,1.993,2.751,3.651,2.751
	c0.352,0,0.705-0.052,1.058-0.158c2.011-0.564,3.175-2.681,2.594-4.691C427.224,366.573,425.125,365.409,423.097,365.991"/>
<path d="M410.582,369.596c-2.028,0.582-3.192,2.698-2.593,4.709c0.476,1.658,1.993,2.752,3.651,2.752
	c0.335,0,0.705-0.052,1.04-0.158c2.029-0.564,3.193-2.681,2.611-4.693C414.71,370.178,412.593,369.032,410.582,369.596"/>
<path d="M435.618,362.387c-2.011,0.582-3.174,2.698-2.593,4.709c0.476,1.658,1.993,2.752,3.651,2.752
	c0.352,0,0.705-0.052,1.059-0.158c2.01-0.564,3.174-2.682,2.592-4.71C439.746,362.969,437.647,361.806,435.618,362.387"/>
<path d="M398.069,373.207l-30.621,8.819c-2.011,0.582-3.174,2.681-2.593,4.71
	c0.476,1.658,1.993,2.751,3.651,2.751c0.335,0,0.705-0.052,1.04-0.158h0.019l26.051-7.497l4.569-1.322
	c2.011-0.583,3.174-2.682,2.593-4.71C402.196,373.789,400.079,372.624,398.069,373.207"/>
</svg>
