<?xml version="1.0" encoding="iso-8859-1"?>
<!-- Generator: Adobe Illustrator 23.0.1, SVG Export Plug-In . SVG Version: 6.00 Build 0)  -->
<svg version="1.1" id="Layer_1" xmlns="http://www.w3.org/2000/svg" xmlns:xlink="http://www.w3.org/1999/xlink" x="0px" y="0px"
	 viewBox="0 0 365.609 500" style="enable-background:new 0 0 365.609 500;" xml:space="preserve">
<g>
	<path d="M365.603,248.507v-1.542c0-0.096-0.022-0.186-0.028-0.28c-0.702-32.259-17.029-61.658-44.1-79.342
		L305.654,54.258c4.357-2.805,7.091-7.673,7.091-13V15.487c0-8.537-6.95-15.487-15.488-15.487h-58.05
		c-8.537,0-15.488,6.949-15.488,15.487v25.772c0,5.327,2.734,10.194,7.091,13l-15.823,113.085
		c-27.059,17.678-43.385,47.06-44.099,79.305c-0.008,0.107-0.032,0.209-0.032,0.317v1.747c0,0.047-0.002,0.094-0.002,0.142v176.857
		c0,0.015-0.004,0.029-0.004,0.044v12.612c0,0.015,0.004,0.029,0.004,0.044v30.915c0,16.916,13.76,30.674,30.675,30.674h133.406
		c16.915,0,30.674-13.758,30.674-30.674V248.853C365.609,248.738,365.604,248.623,365.603,248.507z M232.539,15.487
		c0-3.686,2.999-6.668,6.667-6.668h58.05c3.669,0,6.668,2.981,6.668,6.668v25.772c0,2.839-1.817,5.362-4.533,6.315
		c-1.993,0.688-3.211,2.681-2.928,4.78l6.453,46.085h-69.385l6.452-46.085c0.299-2.099-0.935-4.092-2.929-4.78
		c-2.698-0.953-4.515-3.476-4.515-6.315V15.487z M334.935,491.181H201.529c-12.048,0-21.855-9.808-21.855-21.855v-26.549h8.197
		c2.434,0,4.41-1.976,4.41-4.41c0-2.434-1.976-4.41-4.41-4.41h-8.185v-8.202c0-0.04-0.011-0.078-0.012-0.118v-23.595
		c0-0.007,0.002-0.014,0.002-0.022v-23.742c0-0.007-0.002-0.014-0.002-0.022v-23.699c0-0.007,0.002-0.014,0.002-0.022v-23.742
		c0-0.007-0.002-0.014-0.002-0.022v-23.699c0-0.007,0.002-0.014,0.002-0.022v-23.742c0-0.007-0.002-0.014-0.002-0.022v-23.689
		c0-0.007,0.002-0.014,0.002-0.022v-8.202h8.202c2.433,0,4.409-1.976,4.409-4.409c0-2.434-1.976-4.41-4.409-4.41h-7.978
		c1.976-28.255,17.182-53.683,41.543-68.862c1.235-0.776,1.975-2.118,2.046-3.528l8.807-62.907h71.855l8.786,62.747
		c0.036,1.482,0.795,2.875,2.082,3.687c24.361,15.178,39.567,40.607,41.543,68.862h-7.981c-2.434,0-4.41,1.976-4.41,4.41
		c0,2.433,1.976,4.409,4.41,4.409h8.202v8.202c0,0.019,0.005,0.036,0.005,0.054v23.624c0,0.019-0.005,0.036-0.005,0.054v23.742
		c0,0.019,0.005,0.036,0.005,0.054v23.633c0,0.019-0.005,0.036-0.005,0.054v23.742c0,0.019,0.005,0.036,0.005,0.054v23.633
		c0,0.019-0.005,0.036-0.005,0.054v23.742c0,0.019,0.005,0.036,0.005,0.054V425.7c0,0.019-0.005,0.036-0.005,0.054v8.202h-8.202
		c-2.434,0-4.41,1.976-4.41,4.41c0,2.434,1.976,4.41,4.41,4.41h8.208v26.549C356.79,481.373,346.982,491.181,334.935,491.181z"/>
	<path d="M279.713,433.957h-22.966c-2.434,0-4.41,1.976-4.41,4.41c0,2.434,1.976,4.41,4.41,4.41h22.966
		c2.434,0,4.41-1.976,4.41-4.41C284.123,435.933,282.147,433.957,279.713,433.957z"/>
	<path d="M325.628,433.957h-22.966c-2.434,0-4.41,1.976-4.41,4.41c0,2.434,1.976,4.41,4.41,4.41h22.966
		c2.434,0,4.41-1.976,4.41-4.41C330.038,435.933,328.062,433.957,325.628,433.957z"/>
	<path d="M233.798,433.957h-22.966c-2.434,0-4.409,1.976-4.409,4.41c0,2.434,1.975,4.41,4.409,4.41h22.966
		c2.434,0,4.41-1.976,4.41-4.41C238.208,435.933,236.232,433.957,233.798,433.957z"/>
	<path d="M325.628,242.56h-22.966c-2.434,0-4.41,1.975-4.41,4.409c0,2.434,1.976,4.41,4.41,4.41h22.966
		c2.434,0,4.41-1.976,4.41-4.41C330.038,244.535,328.062,242.56,325.628,242.56z"/>
	<path d="M233.798,242.56h-22.966c-2.434,0-4.409,1.975-4.409,4.409c0,2.434,1.975,4.41,4.409,4.41h22.966
		c2.434,0,4.41-1.976,4.41-4.41C238.208,244.535,236.232,242.56,233.798,242.56z"/>
	<path d="M279.713,242.56h-22.966c-2.434,0-4.41,1.975-4.41,4.409c0,2.434,1.976,4.41,4.41,4.41h22.966
		c2.434,0,4.41-1.976,4.41-4.41C284.123,244.535,282.147,242.56,279.713,242.56z"/>
	<path d="M49.284,224.584c27.164,0,49.284-22.102,49.284-49.284c0-27.164-22.119-49.267-49.284-49.267
		C22.119,126.033,0,148.136,0,175.3C0,202.482,22.119,224.584,49.284,224.584z M49.284,134.853
		c22.313,0,40.446,18.151,40.446,40.447c0,22.313-18.133,40.463-40.446,40.463c-22.313,0-40.447-18.15-40.447-40.463
		C8.836,153.004,26.97,134.853,49.284,134.853z"/>
	<path d="M132.743,78.286c-16.281,0-29.528,13.229-29.528,29.51c0,16.28,13.247,29.528,29.528,29.528
		c16.281,0,29.528-13.248,29.528-29.528C162.271,91.515,149.024,78.286,132.743,78.286z M132.743,128.504
		c-11.413,0-20.69-9.295-20.69-20.708c0-11.413,9.278-20.691,20.69-20.691c11.413,0,20.709,9.279,20.709,20.691
		C153.452,119.209,144.156,128.504,132.743,128.504z"/>
	<path d="M90.055,270.79c-16.281,0-29.528,13.247-29.528,29.528c0,16.281,13.247,29.528,29.528,29.528
		s29.528-13.247,29.528-29.528C119.583,284.037,106.336,270.79,90.055,270.79z M90.055,321.026
		c-11.413,0-20.709-9.295-20.709-20.708c0-11.413,9.296-20.691,20.709-20.691s20.69,9.279,20.69,20.691
		C110.745,311.731,101.468,321.026,90.055,321.026z"/>
	<path d="M16.826,47.909h20.696V68.61c0,2.434,1.976,4.41,4.41,4.41c2.434,0,4.41-1.976,4.41-4.41V47.909
		h20.702c2.434,0,4.41-1.976,4.41-4.41c0-2.434-1.976-4.409-4.41-4.409H46.342V18.392c0-2.452-1.976-4.427-4.41-4.427
		c-2.434,0-4.41,1.976-4.41,4.427V39.09H16.826c-2.434,0-4.427,1.975-4.427,4.409C12.398,45.934,14.392,47.909,16.826,47.909z"/>
	<path d="M58.119,376.667H37.416v-20.695c0-2.452-1.976-4.428-4.41-4.428c-2.434,0-4.409,1.976-4.409,4.428
		v20.695H7.9c-2.434,0-4.41,1.976-4.41,4.41c0,2.434,1.976,4.41,4.41,4.41h20.697v20.703c0,2.434,1.975,4.41,4.409,4.41
		c2.434,0,4.41-1.976,4.41-4.41v-20.703h20.703c2.434,0,4.41-1.976,4.41-4.41C62.529,378.642,60.553,376.667,58.119,376.667z"/>
</g>
</svg>
