<?xml version="1.0" encoding="iso-8859-1"?>
<!-- Generator: Adobe Illustrator 23.0.1, SVG Export Plug-In . SVG Version: 6.00 Build 0)  -->
<svg version="1.1" id="Layer_1" xmlns="http://www.w3.org/2000/svg" xmlns:xlink="http://www.w3.org/1999/xlink" x="0px" y="0px"
	 viewBox="0 0 194.73 500" style="enable-background:new 0 0 194.73 500;" xml:space="preserve">
<path d="M57.605,320.634h66.285c3.705-2.717,7.408-5.662,11.06-8.82H57.605c-2.434,0-4.41,1.976-4.41,4.41
	C53.195,318.658,55.171,320.634,57.605,320.634"/>
<path d="M61.707,359.255c0.018-0.212,0.071-0.406,0.106-0.618h-4.216c-2.434,0-4.41,1.976-4.41,4.41
	c0,2.434,1.976,4.409,4.41,4.409h6.544C62.377,365.164,61.478,362.254,61.707,359.255"/>
<path d="M100.856,335.22h-43.25c-2.434,0-4.41,1.976-4.41,4.41c0,2.434,1.976,4.41,4.41,4.41h24.993
	C87.627,341.906,93.906,338.995,100.856,335.22"/>
<path d="M164.074,491.163H30.656c-12.03,0-21.837-9.789-21.837-21.837v-26.563h79.956
	c18.45,0,37.024-17.533,55.402-52.228c-1.939-2.382-4.216-4.498-6.756-6.226c-7.566,14.604-15.628,27.233-23.988,36.088
	c0.495-1.429,0.917-2.91,1.271-4.41c1.639-7.267,2.134-18.521-4.834-30.796c-5.239-9.225-13.723-17.339-25.311-24.2
	c9.507-3.722,24.976-10.672,41.609-21.802c18.89-12.629,34.43-27.464,46.231-43.991c-6.738,21.661-15.152,45.561-24.659,67.345
	c2.611,1.534,5.098,3.263,7.409,5.202c3.228-7.32,6.438-15.133,9.648-23.494c8.784-22.93,15.981-45.984,21.114-63.781v188.855
	C185.911,481.374,176.121,491.163,164.074,491.163 M50.57,173.687c1.253-0.776,1.993-2.099,2.064-3.493l8.801-62.934h71.86
	l8.784,62.776c0.036,1.464,0.793,2.858,2.082,3.651c24.342,15.187,39.546,40.604,41.521,68.879H9.049
	C11.025,214.291,26.229,188.874,50.57,173.687 M61.682,15.504c0-3.687,2.981-6.686,6.668-6.686h58.03
	c3.686,0,6.667,2.998,6.667,6.686v25.77c0,2.84-1.816,5.362-4.516,6.297c-1.993,0.688-3.21,2.698-2.927,4.78l6.455,46.089H62.669
	l6.457-46.089c0.299-2.082-0.935-4.092-2.929-4.78c-2.698-0.936-4.516-3.457-4.516-6.297V15.504z M71.754,364.183
	c37.164,17.692,36.388,40.763,34.343,49.865c-2.664,11.73-11.254,19.896-17.321,19.896H8.82V251.384h175.644
	c-12.081,39.423-40.621,65.333-62.969,80.327c-25.576,17.144-48.877,24.182-49.106,24.252c-1.747,0.512-2.998,2.064-3.139,3.88
	C69.108,361.661,70.096,363.389,71.754,364.183 M194.712,247.151v-0.123c0-0.017,0-0.035,0-0.052c0-0.053,0-0.088,0-0.142
	c-0.653-32.313-16.986-61.77-44.097-79.479L134.794,54.274c4.339-2.822,7.091-7.673,7.091-12.999v-25.77
	C141.885,6.95,134.935,0,126.381,0H68.35c-8.537,0-15.487,6.95-15.487,15.504v25.77c0,5.327,2.734,10.178,7.091,12.999
	l-15.84,113.064c-27.04,17.691-43.356,47.042-44.078,79.284C0.018,246.746,0,246.852,0,246.975v1.887v189.49v30.973
	C0,486.242,13.758,500,30.656,500h133.418c16.897,0,30.655-13.758,30.655-30.674V248.863
	C194.73,248.28,194.712,247.715,194.712,247.151"/>
<path d="M173.158,400.512l-5.786,5.785c-1.993-24.465-22.524-43.762-47.5-43.762
	c-2.434,0-4.41,1.976-4.41,4.41c0,2.434,1.976,4.41,4.41,4.41c19.949,0,36.442,15.133,38.593,34.518l-5.362-5.362
	c-1.729-1.729-4.516-1.729-6.245,0c-1.711,1.728-1.711,4.515,0,6.244l13.159,13.14c0.847,0.865,1.976,1.288,3.122,1.288
	c1.129,0,2.258-0.423,3.104-1.288l13.159-13.14c1.71-1.729,1.71-4.516,0-6.244C177.673,398.783,174.886,398.783,173.158,400.512"/>
</svg>
