<?xml version="1.0" encoding="iso-8859-1"?>
<!-- Generator: Adobe Illustrator 23.0.1, SVG Export Plug-In . SVG Version: 6.00 Build 0)  -->
<svg version="1.1" id="Layer_1" xmlns="http://www.w3.org/2000/svg" xmlns:xlink="http://www.w3.org/1999/xlink" x="0px" y="0px"
	 viewBox="0 0 408.779 500" style="enable-background:new 0 0 408.779 500;" xml:space="preserve">
<g>
	<path d="M408.773,248.431v-1.466c0-0.091-0.021-0.177-0.027-0.266c-0.699-32.264-17.026-61.667-44.1-79.353
		L348.825,54.262c4.357-2.805,7.091-7.673,7.091-13V15.491c0-8.537-6.95-15.486-15.488-15.486h-58.05
		c-8.537,0-15.488,6.949-15.488,15.486v25.771c0,5.327,2.734,10.194,7.091,13l-15.823,113.084
		c-27.026,17.656-43.345,46.988-44.096,79.187c-0.014,0.145-0.044,0.285-0.044,0.433v191.402c0,0.026,0.007,0.05,0.008,0.076v30.884
		c0,16.915,13.758,30.674,30.674,30.674h133.404c16.915,0,30.674-13.758,30.674-30.674V248.855
		C408.779,248.714,408.773,248.573,408.773,248.431z M222.857,251.392h177.095v182.564H222.857V251.392z M275.711,15.491
		c0-3.686,2.999-6.668,6.667-6.668h58.05c3.669,0,6.667,2.981,6.667,6.668v25.771c0,2.839-1.816,5.362-4.533,6.296
		c-1.993,0.706-3.21,2.7-2.928,4.799l6.452,46.084h-69.382l6.451-46.084c0.299-2.099-0.936-4.092-2.929-4.799
		c-2.698-0.934-4.515-3.457-4.515-6.296V15.491z M264.616,173.696c1.235-0.776,1.975-2.099,2.046-3.51l8.808-62.926h71.852
		l8.788,62.766c0.036,1.465,0.795,2.858,2.082,3.67c24.36,15.178,39.566,40.605,41.543,68.859h-176.66
		C225.051,214.302,240.256,188.874,264.616,173.696z M378.106,491.181H244.701c-12.048,0-21.855-9.808-21.855-21.855v-26.551H399.96
		v26.551C399.96,481.373,390.152,491.181,378.106,491.181z"/>
	<path d="M311.218,299.944c-23.549,0-42.722,19.173-42.722,42.722c0,23.548,19.173,42.722,42.722,42.722
		c23.548,0,42.721-19.174,42.721-42.722C353.94,319.117,334.766,299.944,311.218,299.944z M311.218,376.567
		c-18.698,0-33.903-15.205-33.903-33.902c0-18.698,15.205-33.903,33.903-33.903c18.697,0,33.901,15.205,33.901,33.903
		C345.12,361.362,329.915,376.567,311.218,376.567z"/>
	<path d="M95.18,8.82c2.434,0,4.41-1.976,4.41-4.41S97.615,0,95.18,0H4.41C1.976,0,0,1.976,0,4.41
		s1.976,4.41,4.41,4.41h40.979v482.361H4.41c-2.434,0-4.41,1.976-4.41,4.41C0,498.025,1.976,500,4.41,500h90.77
		c2.434,0,4.41-1.975,4.41-4.409c0-2.434-1.976-4.41-4.41-4.41H54.208V8.82H95.18z"/>
</g>
</svg>
