<?xml version="1.0" encoding="iso-8859-1"?>
<!-- Generator: Adobe Illustrator 23.0.1, SVG Export Plug-In . SVG Version: 6.00 Build 0)  -->
<svg version="1.1" id="Layer_1" xmlns="http://www.w3.org/2000/svg" xmlns:xlink="http://www.w3.org/1999/xlink" x="0px" y="0px"
	 viewBox="0 0 407.145 500" style="enable-background:new 0 0 407.145 500;" xml:space="preserve">
<g>
	<path d="M194.753,246.964c0-0.1-0.023-0.194-0.03-0.293c-0.707-32.253-17.034-61.645-44.099-79.327
		L134.801,54.26c4.357-2.805,7.091-7.673,7.091-13V15.489c0-8.537-6.95-15.487-15.487-15.487h-58.05
		c-8.537,0-15.487,6.949-15.487,15.487V41.26c0,5.327,2.734,10.194,7.091,13L44.137,167.344
		c-27.041,17.665-43.362,47.019-44.098,79.237C0.027,246.709,0,246.833,0,246.964v191.403c0,0.011,0.003,0.022,0.003,0.033v30.927
		C0.003,486.242,13.762,500,30.677,500h133.405c16.916,0,30.675-13.758,30.675-30.674V248.854c0-0.093-0.004-0.186-0.004-0.279
		V246.964z M8.822,251.391h177.094v182.565H8.822V251.391z M61.687,15.489c0-3.686,2.999-6.668,6.668-6.668h58.05
		c3.669,0,6.669,2.981,6.669,6.668V41.26c0,2.839-1.818,5.362-4.534,6.296c-1.976,0.689-3.21,2.699-2.911,4.78l6.448,46.1H62.678
		l6.453-46.1c0.3-2.081-0.934-4.091-2.928-4.78c-2.699-0.934-4.516-3.457-4.516-6.296V15.489z M50.592,173.695
		c1.235-0.795,1.976-2.118,2.045-3.528l8.806-62.91h71.866l8.776,62.75c0.035,1.482,0.794,2.875,2.082,3.687
		c24.359,15.178,39.565,40.606,41.542,68.859H9.049C11.026,214.3,26.232,188.872,50.592,173.695z M164.082,491.181H30.677
		c-12.047,0-21.855-9.808-21.855-21.855v-26.551h177.115v26.551C185.937,481.373,176.13,491.181,164.082,491.181z"/>
	<path d="M54.946,323.666h84.862c2.435,0,4.41-1.976,4.41-4.41c0-2.434-1.976-4.41-4.41-4.41H54.946
		c-2.435,0-4.41,1.976-4.41,4.41C50.535,321.69,52.511,323.666,54.946,323.666z"/>
	<path d="M54.946,347.078h84.862c2.435,0,4.41-1.976,4.41-4.41c0-2.434-1.976-4.41-4.41-4.41H54.946
		c-2.435,0-4.41,1.976-4.41,4.41C50.535,345.102,52.511,347.078,54.946,347.078z"/>
	<path d="M109.547,361.662c-2.434,0-4.41,1.976-4.41,4.41c0,2.434,1.976,4.41,4.41,4.41
		c2.434,0,4.41-1.976,4.41-4.41C113.957,363.638,111.981,361.662,109.547,361.662z"/>
	<path d="M94.431,361.662c-0.053,0-0.101,0.014-0.153,0.015c-0.03-0.001-0.058-0.009-0.088-0.009H54.96
		c-2.451,0-4.41,1.976-4.41,4.41c0,2.434,1.958,4.41,4.41,4.41h39.23c0.052,0,0.101-0.014,0.152-0.015
		c0.03,0.001,0.058,0.009,0.089,0.009c2.434,0,4.41-1.976,4.41-4.41C98.841,363.638,96.865,361.662,94.431,361.662z"/>
	<path d="M139.798,361.662c-2.434,0-4.41,1.976-4.41,4.41c0,2.434,1.976,4.41,4.41,4.41
		c2.452,0,4.428-1.976,4.428-4.41C144.226,363.638,142.25,361.662,139.798,361.662z"/>
	<path d="M124.682,361.662c-2.452,0-4.41,1.976-4.41,4.41c0,2.434,1.958,4.41,4.41,4.41
		c2.434,0,4.409-1.976,4.409-4.41C129.091,363.638,127.116,361.662,124.682,361.662z"/>
	<path d="M268.017,40.319h-4.463l2.575-11.359c0.459-2.028-0.529-3.316-2.646-3.316h-1.358
		c-1.818,0-2.946,0.899-3.334,2.646l-2.717,12.029h-8.396l2.575-11.359c0.441-2.028-0.529-3.316-2.646-3.316h-1.358
		c-1.835,0-2.964,0.899-3.334,2.646l-2.734,12.029h-6.791c-1.976,0-3.035,1.059-3.035,3.016v0.759c0,1.958,1.059,3.017,3.035,3.017
		h5.203l-2.258,9.984h-5.98c-1.957,0-3.034,1.058-3.034,3.034v0.759c0,1.957,1.076,3.016,3.034,3.016h4.464l-2.576,11.359
		c-0.458,2.029,0.529,3.316,2.646,3.316h1.377c1.799,0,2.945-0.899,3.316-2.646l2.733-12.029h8.379l-2.558,11.359
		c-0.458,2.029,0.528,3.316,2.646,3.316h1.358c1.816,0,2.945-0.899,3.334-2.646l2.716-12.029h6.809c1.957,0,3.016-1.059,3.016-3.016
		v-0.759c0-1.976-1.059-3.034-3.016-3.034h-5.221l2.275-9.984h5.962c1.976,0,3.034-1.059,3.034-3.017v-0.759
		C271.051,41.378,269.993,40.319,268.017,40.319z M252.212,57.095h-8.307l2.257-9.984h8.326L252.212,57.095z"/>
	<path d="M292.221,25.033h-0.599c-8.008,0-13.318,3.105-13.318,11.201v31.75
		c0,8.025,5.309,11.201,13.318,11.201h0.599c8.026,0,13.317-3.175,13.317-11.201v-31.75
		C305.539,28.209,300.248,25.033,292.221,25.033z M296.772,66.627c0,3.792-1.975,4.851-4.85,4.851c-2.875,0-4.834-1.059-4.834-4.851
		V37.592c0-3.792,1.958-4.851,4.834-4.851c2.875,0,4.85,1.059,4.85,4.851V66.627z"/>
	<path d="M329.433,25.033h-0.599c-8.008,0-13.317,3.105-13.317,11.201v31.75
		c0,8.025,5.31,11.201,13.317,11.201h0.599c8.027,0,13.319-3.175,13.319-11.201v-31.75
		C342.751,28.209,337.459,25.033,329.433,25.033z M333.984,66.627c0,3.792-1.974,4.851-4.85,4.851c-2.876,0-4.834-1.059-4.834-4.851
		V37.592c0-3.792,1.958-4.851,4.834-4.851c2.875,0,4.85,1.059,4.85,4.851V66.627z"/>
	<path d="M366.65,25.033h-0.599c-8.025,0-13.318,3.105-13.318,11.201v31.75
		c0,8.025,5.292,11.201,13.318,11.201h0.599c8.026,0,13.317-3.175,13.317-11.201v-31.75
		C379.967,28.209,374.676,25.033,366.65,25.033z M371.201,66.627c0,3.792-1.975,4.851-4.85,4.851c-2.875,0-4.834-1.059-4.834-4.851
		V37.592c0-3.792,1.958-4.851,4.834-4.851c2.875,0,4.85,1.059,4.85,4.851V66.627z"/>
	<path d="M387.618,0H222.215c-10.777,0-19.544,8.767-19.544,19.526v65.159
		c0,10.779,8.767,19.545,19.544,19.545h6.827v23.23c0,1.729,1.005,3.281,2.575,4.004c0.582,0.283,1.217,0.406,1.835,0.406
		c1.04,0,2.063-0.37,2.875-1.076l30.903-26.564h120.388c10.76,0,19.526-8.767,19.526-19.545V19.526
		C407.145,8.767,398.378,0,387.618,0z M398.324,84.685c0,5.91-4.815,10.725-10.706,10.725H265.59c-1.058,0-2.063,0.371-2.874,1.059
		l-24.855,21.378V99.82c0-2.434-1.975-4.41-4.409-4.41h-11.237c-5.909,0-10.724-4.815-10.724-10.725V19.526
		c0-5.891,4.815-10.706,10.724-10.706h165.403c5.891,0,10.706,4.815,10.706,10.706V84.685z"/>
</g>
</svg>
