<?xml version="1.0" encoding="utf-8"?>
<!-- Generator: Adobe Illustrator 22.1.0, SVG Export Plug-In . SVG Version: 6.00 Build 0)  -->
<svg version="1.1" id="Layer_1" xmlns="http://www.w3.org/2000/svg" xmlns:xlink="http://www.w3.org/1999/xlink" x="0px" y="0px"
	 viewBox="0 0 300 30" style="enable-background:new 0 0 300 30;" xml:space="preserve">
<style type="text/css">
	.st0{fill:#1C6087;}
</style>
<path class="st0" d="M113.9,20.6h9.9v-3.3h-5.9v-1.7h5.8v-3.3h-5.8v-1.5h5.9V7.6h-9.9V20.6z M100.2,20.8c3.5,0,5.2-2.1,6-3.8
	l-3.4-1.6c-0.3,1-1.3,1.9-2.6,1.9c-1.8,0-3.1-1.4-3.1-3.3c0-1.8,1.3-3.3,3.1-3.3c1.3,0,2.3,0.9,2.6,1.9l3.4-1.6
	c-0.8-1.8-2.5-3.8-6-3.8c-4,0-7.1,2.7-7.1,6.7C93.1,18.1,96.2,20.8,100.2,20.8 M81.3,20.6h3.9v-13h-3.9V20.6z M66.1,20.6H70V11h3.5
	V7.6H62.6V11h3.5V20.6z M43.3,18.7c1.4,1.2,3.3,2.1,6,2.1c3.5,0,5.6-1.7,5.6-4.5c0-3-3.2-3.6-5.3-4c-1.4-0.2-1.9-0.4-1.9-0.9
	c0-0.3,0.2-0.7,1.2-0.7c1,0,2.5,0.4,3.6,1.3l2.1-2.8c-1.5-1.2-3.4-1.8-5.5-1.8c-3.6,0-5.4,2-5.4,4.2c0,3.3,3.3,3.8,5.4,4.2
	c1.3,0.2,1.8,0.5,1.8,1s-0.7,0.8-1.4,0.8c-1.8,0-3.2-0.7-4.2-1.7L43.3,18.7z M23.2,15.2c0,3.2,1.9,5.6,6.3,5.6
	c4.4,0,6.2-2.4,6.2-5.6V7.6h-4v7.5c0,1.2-0.6,2.2-2.2,2.2c-1.6,0-2.3-1-2.3-2.2V7.6h-4V15.2z M6,19.7c1,0.8,2.4,1.1,3.6,1.1
	c3,0,5-1.5,5-4.9V7.6h-3.9v8.3c0,0.9-0.6,1.5-1.4,1.5c-0.7,0-1.2-0.3-1.7-0.6L6,19.7z"/>
<path class="st0" d="M143.5,11.4h-1.3l1.1,0.8l-0.4,1.3l1.1-0.8l1.1,0.8l-0.4-1.3l1.1-0.8h-1.3l-0.4-1.3L143.5,11.4z M155.4,8v7.5
	l0,0.1l-3.7,3.9v3.7l6.2-6.6V5.6L155.4,8z M142.3,5.1l2.2,2.2l0.2,0.2h4V20l-4.3-4.5l-2,1.7L150,25h0l1.1-1.1V20V7.6h4l2.5-2.4
	H142.3z"/>
<path class="st0" d="M285.2,18.4c0.9,1.1,2.5,1.9,4.5,1.9c3.3,0,4.3-1.9,4.3-3.5c0-2.5-2.2-3.1-4.1-3.7c-1.7-0.4-3.2-0.9-3.2-2.3
	c0-1.3,1.2-2.3,2.9-2.3c1.4,0,2.6,0.5,3.5,1.5l0.7-0.8c-1-1.1-2.3-1.7-4.1-1.7c-2.2,0-4,1.3-4,3.3c0,2.3,2.1,2.8,4,3.3
	c1.7,0.5,3.4,0.9,3.4,2.7c0,1-0.7,2.4-3.2,2.4c-1.7,0-3-0.9-3.8-1.8L285.2,18.4z M277.2,20.2h1.1V8.9h4v-1h-9.1v1h4V20.2z M266.1,9
	l2.9,7.2h-5.8L266.1,9z M270.5,20.2h1.2l-5-12.2h-1.3l-5,12.2h1.2l1.2-3h6.5L270.5,20.2z M256.6,11.5c0,1.5-1.1,2.6-2.7,2.6h-3.4
	V8.9h3.4C255.5,8.9,256.6,10,256.6,11.5 M256,20.2h1.3l-3-5.1c1.8-0.1,3.4-1.3,3.4-3.5c0-2.2-1.6-3.6-3.7-3.6h-4.6v12.2h1v-5.1h2.7
	L256,20.2z M240.5,20.4c2,0,3.4-0.8,4.5-2.2l-0.9-0.5c-0.8,1.1-2.1,1.8-3.6,1.8c-2.8,0-5.1-2.2-5.1-5.4c0-3.2,2.2-5.4,5.1-5.4
	c1.5,0,2.8,0.7,3.6,1.8l0.9-0.6c-1-1.3-2.5-2.2-4.5-2.2c-3.4,0-6.2,2.6-6.2,6.3S237,20.4,240.5,20.4 M229.3,14.1
	c0,3.1-1.9,5.4-4.8,5.4c-3,0-4.8-2.3-4.8-5.4c0-3.1,1.9-5.4,4.8-5.4C227.4,8.7,229.3,10.9,229.3,14.1 M218.5,14.1
	c0,3.6,2.3,6.3,5.9,6.3c3.6,0,5.9-2.7,5.9-6.3c0-3.6-2.4-6.3-5.9-6.3C220.8,7.7,218.5,10.5,218.5,14.1 M213,20.2h1.1V7.9h-1.6
	l-4.1,10.1l-4.2-10.1h-1.6v12.2h1V9.3l4.5,10.9h0.4L213,9.3V20.2z M190.1,20.2h7.8v-1h-6.7v-4.8h6.6v-1h-6.6V8.9h6.7v-1h-7.8V20.2z
	 M176.6,19.2V8.9h2.9c3.2,0,5.1,2.3,5.1,5.2c0,2.9-1.9,5.2-5.1,5.2H176.6z M175.6,20.2h3.9c3.8,0,6.2-2.7,6.2-6.1
	c0-3.4-2.4-6.1-6.2-6.1h-3.9V20.2z"/>
</svg>
