<?xml version="1.0" encoding="utf-8"?>
<!-- Generator: Adobe Illustrator 17.0.0, SVG Export Plug-In . SVG Version: 6.00 Build 0)  -->
<!DOCTYPE svg PUBLIC "-//W3C//DTD SVG 1.1//EN" "http://www.w3.org/Graphics/SVG/1.1/DTD/svg11.dtd">
<svg version="1.1" id="Layer_1" xmlns="http://www.w3.org/2000/svg" xmlns:xlink="http://www.w3.org/1999/xlink" x="0px" y="0px"
	 width="134px" height="61.59px" viewBox="0 0 134 61.59" enable-background="new 0 0 134 61.59" xml:space="preserve">
<g>
	<g>
		<rect x="29.226" y="20.408" fill="#ED332B" width="104.711" height="4.375"/>
		<rect x="29.226" y="10.191" fill="#ED332B" width="104.711" height="4.375"/>
		<rect x="29.226" y="-0.018" fill="#ED332B" width="104.711" height="4.377"/>
		<rect x="-0.062" y="20.408" fill="#005287" width="25.491" height="4.375"/>
		<rect x="-0.062" y="10.191" fill="#005287" width="25.491" height="4.375"/>
		<rect x="-0.062" y="-0.018" fill="#005287" width="25.491" height="4.377"/>
		<path fill="#005287" d="M94.657,41.922c-0.122,0.46-0.294,0.85-0.515,1.162c-0.219,0.314-0.484,0.553-0.789,0.717
			c-0.309,0.163-0.642,0.245-1.008,0.245c-0.362,0-0.696-0.08-1-0.241c-0.305-0.159-0.567-0.396-0.787-0.706
			c-0.222-0.309-0.392-0.695-0.512-1.156c-0.12-0.459-0.181-0.986-0.181-1.584c0-0.592,0.063-1.118,0.186-1.578
			c0.122-0.462,0.293-0.849,0.514-1.163c0.218-0.314,0.483-0.553,0.79-0.716c0.308-0.163,0.642-0.246,1.006-0.246
			c0.363,0,0.697,0.08,1.001,0.241c0.305,0.161,0.565,0.394,0.783,0.706c0.219,0.309,0.389,0.695,0.511,1.157
			c0.122,0.459,0.184,0.988,0.184,1.581C94.842,40.935,94.779,41.462,94.657,41.922 M98.585,37.277
			c-0.332-0.894-0.792-1.637-1.38-2.239c-0.592-0.602-1.294-1.053-2.12-1.364c-0.823-0.313-1.726-0.464-2.711-0.464
			c-0.982,0-1.885,0.157-2.722,0.473c-0.826,0.317-1.541,0.777-2.138,1.382c-0.596,0.609-1.058,1.357-1.389,2.251
			c-0.332,0.889-0.499,1.904-0.499,3.051c0,1.151,0.163,2.172,0.487,3.057c0.326,0.892,0.786,1.64,1.382,2.237
			c0.594,0.598,1.303,1.056,2.129,1.362c0.822,0.312,1.729,0.467,2.708,0.467c0.985,0,1.89-0.159,2.724-0.474
			c0.829-0.315,1.543-0.78,2.14-1.382c0.592-0.608,1.057-1.362,1.389-2.248c0.333-0.889,0.501-1.909,0.501-3.056
			C99.086,39.186,98.918,38.166,98.585,37.277"/>
		<polygon fill="#005287" points="100.112,33.428 104.548,33.428 105.898,40.751 107.328,33.428 112.091,33.428 113.733,40.848 
			115.182,33.428 119.249,33.428 116.034,47.275 111.599,47.275 109.662,39.006 107.705,47.275 103.327,47.275 		"/>
		<polygon fill="#005287" points="17.953,47.275 21.834,47.275 26.6,33.431 22.642,33.431 19.913,42.434 17.107,33.431 
			13.186,33.431 		"/>
		<polygon fill="#005287" points="3.739,44.049 3.739,41.956 10.22,41.956 10.22,38.789 3.739,38.789 3.739,36.653 10.557,36.653 
			10.557,33.43 -0.062,33.43 -0.062,47.277 10.557,47.277 10.557,44.049 		"/>
		<path fill="#005287" d="M46.934,36.555h2.329c0.611,0,1.044,0.136,1.304,0.416c0.26,0.272,0.386,0.631,0.386,1.069
			c0,0.499-0.132,0.88-0.4,1.144c-0.264,0.265-0.715,0.396-1.349,0.396h-2.27V36.555z M54.095,40.49
			c0.45-0.66,0.676-1.508,0.676-2.553c0-0.815-0.13-1.514-0.387-2.087c-0.257-0.572-0.622-1.038-1.097-1.395
			c-0.474-0.356-1.045-0.617-1.71-0.78c-0.667-0.164-1.403-0.244-2.207-0.244H43.18l0,13.844h3.755v-4.667h1.78l2.485,4.667h3.847
			l-2.775-5.282C53.039,41.652,53.647,41.15,54.095,40.49"/>
		<polygon fill="#005287" points="65.041,42.113 70.164,33.43 66.315,33.43 63.121,39.108 60.033,33.43 56.038,33.43 61.162,42.171 
			61.162,47.275 65.041,47.275 		"/>
		<polygon fill="#005287" points="80.066,36.773 83.963,36.773 83.963,33.428 72.37,33.428 72.37,36.773 76.268,36.773 
			76.268,47.275 80.066,47.275 		"/>
		<path fill="#005287" d="M130.153,33.428l0,3.776v0.952c0,0.357,0.005,0.702,0.021,1.041c0.011,0.334,0.025,0.645,0.039,0.93
			c0.013,0.286,0.03,0.504,0.06,0.662c-0.081-0.144-0.206-0.359-0.379-0.634c-0.17-0.276-0.364-0.573-0.573-0.89
			c-0.211-0.315-0.425-0.631-0.644-0.949c-0.215-0.318-0.405-0.579-0.563-0.788l-3.045-4.101h-3.383l0,13.849h3.681v-4.232v-0.95
			c0-0.358-0.005-0.703-0.02-1.04c-0.013-0.337-0.026-0.642-0.04-0.928c-0.013-0.284-0.034-0.506-0.058-0.665
			c0.09,0.159,0.225,0.378,0.405,0.655c0.176,0.276,0.369,0.567,0.575,0.879c0.204,0.31,0.41,0.624,0.622,0.93
			c0.211,0.309,0.397,0.569,0.553,0.78l3.304,4.571h3.125V33.428H130.153z"/>
		<polygon fill="#005287" points="33.03,44.047 33.03,41.953 39.509,41.953 39.509,38.787 33.03,38.787 33.03,36.651 39.849,36.651 
			39.849,33.43 29.23,33.43 29.23,47.275 39.849,47.275 39.849,44.047 		"/>
		<polygon fill="#005287" points="93.744,59.792 93.744,58.74 97.007,58.74 97.007,57.145 93.744,57.145 93.744,56.07 97.176,56.07 
			97.176,54.449 91.831,54.449 91.831,61.418 97.176,61.418 97.176,59.792 		"/>
		<path fill="#005287" d="M37.956,56.024h1.172c0.308,0,0.526,0.068,0.655,0.209c0.131,0.139,0.195,0.317,0.195,0.539
			c0,0.251-0.067,0.442-0.201,0.575c-0.133,0.134-0.361,0.199-0.678,0.199h-1.143V56.024z M41.559,58.003
			c0.228-0.331,0.339-0.758,0.339-1.285c0-0.409-0.064-0.761-0.194-1.049c-0.13-0.287-0.313-0.522-0.552-0.702
			c-0.24-0.18-0.526-0.311-0.86-0.393c-0.336-0.081-0.706-0.123-1.111-0.123h-3.116l0,6.969h1.89v-2.351h0.895l1.25,2.351h1.936
			l-1.395-2.659C41.029,58.589,41.334,58.336,41.559,58.003"/>
		<polygon fill="#005287" points="109.123,58.818 111.703,54.445 109.766,54.445 108.156,57.306 106.602,54.445 104.59,54.445 
			107.17,58.847 107.17,61.417 109.123,61.417 		"/>
		<polygon fill="#005287" points="102.137,56.139 104.097,56.139 104.097,54.458 98.267,54.458 98.267,56.139 100.227,56.139 
			100.227,61.421 102.137,61.421 		"/>
		<path fill="#005287" d="M45.635,57.978V57.9c0-2.138,1.59-3.561,3.708-3.561c1.697,0,3.198,0.77,3.315,2.634h-2.184
			c-0.078-0.574-0.44-0.896-1.122-0.896c-0.878,0-1.415,0.682-1.415,1.862v0.078c0,1.024,0.341,1.854,1.473,1.854
			c0.877,0,1.209-0.431,1.258-0.889h-1.19v-1.454h3.346l0,0.899c0,1.735-1.143,3.12-3.482,3.12
			C46.932,61.547,45.635,60.076,45.635,57.978"/>
		<path fill="#005287" d="M53.765,58.544v-4.098h2.205v4.01c0,0.909,0.194,1.357,0.985,1.357c0.781,0,0.975-0.449,0.975-1.366v-4
			h2.224v4.079c0,2.096-1.249,3.024-3.199,3.024C54.915,61.549,53.765,60.533,53.765,58.544"/>
		<polygon fill="#005287" points="61.405,54.446 63.882,54.446 65.863,58.134 65.863,54.446 67.804,54.446 67.804,61.421 
			65.687,61.421 63.356,57.247 63.356,61.421 61.405,61.421 		"/>
		<path fill="#005287" d="M71.219,59.187h2.098c0.039,0.439,0.255,0.801,0.974,0.801c0.519,0,0.772-0.236,0.772-0.576
			c0-0.371-0.243-0.488-0.994-0.596c-2.01-0.224-2.692-0.809-2.692-2.243c0-1.287,1.052-2.224,2.788-2.224
			c1.728,0,2.693,0.702,2.81,2.224h-2.049c-0.048-0.429-0.292-0.673-0.761-0.673c-0.458,0-0.691,0.204-0.691,0.507
			c0,0.331,0.203,0.488,0.974,0.586c1.756,0.186,2.733,0.634,2.733,2.184c0,1.298-1.015,2.371-2.889,2.371
			C72.321,61.549,71.267,60.758,71.219,59.187"/>
		<path fill="#005287" d="M80.633,58.757h1.376l-0.684-2.527L80.633,58.757z M79.882,54.446h2.858l2.187,6.976h-2.188l-0.322-1.161
			h-2.203L79.9,61.421h-2.213L79.882,54.446z"/>
		<polygon fill="#005287" points="90.584,56.161 90.584,54.458 90.577,54.458 90.577,54.454 85.748,54.454 85.748,54.458 
			85.748,54.458 85.748,56.161 85.748,56.161 85.748,57.449 85.748,57.449 85.748,59.152 85.748,59.152 85.748,61.428 
			87.821,61.428 87.821,59.152 90.584,59.152 90.584,57.449 87.821,57.449 87.821,56.161 		"/>
		<polygon fill="#005287" points="26.927,56.161 26.927,54.458 26.919,54.458 26.919,54.454 22.091,54.454 22.091,54.458 
			22.09,54.458 22.09,56.161 22.091,56.161 22.091,57.449 22.09,57.449 22.09,59.152 22.091,59.152 22.091,61.428 24.165,61.428 
			24.165,59.152 26.927,59.152 26.927,57.449 24.165,57.449 24.165,56.161 		"/>
		<path fill="#005287" d="M32.685,58.75c-0.063,0.236-0.151,0.436-0.263,0.597c-0.114,0.159-0.249,0.283-0.406,0.367
			c-0.159,0.082-0.331,0.126-0.516,0.126c-0.187,0-0.359-0.042-0.515-0.124c-0.157-0.081-0.291-0.204-0.403-0.363
			c-0.113-0.158-0.201-0.358-0.264-0.594c-0.06-0.235-0.09-0.505-0.09-0.812c0-0.304,0.032-0.574,0.094-0.811
			c0.063-0.236,0.151-0.435,0.265-0.596c0.111-0.162,0.248-0.284,0.406-0.367c0.157-0.086,0.33-0.127,0.515-0.127
			c0.187,0,0.359,0.04,0.515,0.124c0.156,0.081,0.29,0.202,0.402,0.361c0.112,0.159,0.198,0.358,0.261,0.594
			c0.063,0.237,0.094,0.507,0.094,0.812C32.779,58.242,32.748,58.514,32.685,58.75 M34.702,56.364
			c-0.17-0.458-0.407-0.84-0.71-1.146c-0.303-0.31-0.665-0.542-1.087-0.701c-0.423-0.162-0.887-0.239-1.393-0.239
			c-0.503,0-0.967,0.081-1.397,0.243c-0.424,0.161-0.791,0.398-1.098,0.709c-0.306,0.31-0.542,0.696-0.713,1.155
			c-0.17,0.456-0.256,0.977-0.256,1.565c0,0.591,0.083,1.115,0.25,1.569c0.166,0.457,0.404,0.842,0.71,1.149
			c0.304,0.307,0.669,0.543,1.092,0.699c0.422,0.161,0.886,0.239,1.39,0.239c0.505,0,0.97-0.081,1.398-0.244
			c0.426-0.161,0.791-0.399,1.099-0.709c0.304-0.31,0.544-0.697,0.714-1.154c0.17-0.456,0.256-0.979,0.256-1.568
			C34.958,57.345,34.872,56.821,34.702,56.364"/>
		<path fill="#005287" d="M32.685,58.75c-0.063,0.236-0.151,0.436-0.263,0.597c-0.114,0.159-0.249,0.283-0.406,0.367
			c-0.159,0.082-0.331,0.126-0.516,0.126c-0.187,0-0.359-0.042-0.515-0.124c-0.157-0.081-0.291-0.204-0.403-0.363
			c-0.113-0.158-0.201-0.358-0.264-0.594c-0.06-0.235-0.09-0.505-0.09-0.812c0-0.304,0.032-0.574,0.094-0.811
			c0.063-0.236,0.151-0.435,0.265-0.596c0.111-0.162,0.248-0.284,0.406-0.367c0.157-0.086,0.33-0.127,0.515-0.127
			c0.187,0,0.359,0.04,0.515,0.124c0.156,0.081,0.29,0.202,0.402,0.361c0.112,0.159,0.198,0.358,0.261,0.594
			c0.063,0.237,0.094,0.507,0.094,0.812C32.779,58.242,32.748,58.514,32.685,58.75 M34.702,56.364
			c-0.17-0.458-0.407-0.84-0.71-1.146c-0.303-0.31-0.665-0.542-1.087-0.701c-0.423-0.162-0.887-0.239-1.393-0.239
			c-0.503,0-0.967,0.081-1.397,0.243c-0.424,0.161-0.791,0.398-1.098,0.709c-0.306,0.31-0.542,0.696-0.713,1.155
			c-0.17,0.456-0.256,0.977-0.256,1.565c0,0.591,0.083,1.115,0.25,1.569c0.166,0.457,0.404,0.842,0.71,1.149
			c0.304,0.307,0.669,0.543,1.092,0.699c0.422,0.161,0.886,0.239,1.39,0.239c0.505,0,0.97-0.081,1.398-0.244
			c0.426-0.161,0.791-0.399,1.099-0.709c0.304-0.31,0.544-0.697,0.714-1.154c0.17-0.456,0.256-0.979,0.256-1.568
			C34.958,57.345,34.872,56.821,34.702,56.364"/>
		<rect x="61.398" y="54.46" fill="#005287" width="1.923" height="6.941"/>
	</g>
</g>
</svg>
