<!-- Generator: Adobe Illustrator 21.1.0, SVG Export Plug-In  -->
<svg version="1.1"
	 xmlns="http://www.w3.org/2000/svg" xmlns:xlink="http://www.w3.org/1999/xlink" xmlns:a="http://ns.adobe.com/AdobeSVGViewerExtensions/3.0/"
	 x="0px" y="0px" width="443.4px" height="127.7px" viewBox="0 0 443.4 127.7" style="enable-background:new 0 0 443.4 127.7;"
	 xml:space="preserve">
<style type="text/css">
	.st0{fill:#fff;}
	.st1{fill:#fff;}
</style>
<defs>
</defs>
<g>
	<g>
		<path class="st0" d="M0,1h17.2v66H0V1z"/>
		<path class="st0" d="M30,1h18.7l19.1,38.6L86.9,1h18.7v66H90.4l-0.1-41.8L73.5,60.5H62.3l-17-35.2v41.8H30V1z"/>
		<path class="st0" d="M167.1,7.1c4.6,4,7,9.7,7,17.1c0,7.8-2.3,13.8-7,18.1c-4.6,4.3-11.2,6.5-19.6,6.5h-11.8v18.3h-17.2V1h29
			C155.9,1,162.4,3.1,167.1,7.1z M154.8,32.4c1.9-1.8,2.9-4.3,2.9-7.6c0-3.2-1-5.7-2.9-7.4c-1.9-1.7-4.6-2.6-8.2-2.6h-10.9V35h10.9
			C150.2,35,152.9,34.2,154.8,32.4z"/>
		<path class="st0" d="M182.5,1h52.1v13.8h-34.8v12.3h31.5v13.7l-31.5,0.1v12.4h35.8v13.8h-53V1z"/>
		<path class="st0" d="M294.6,67.1l-4.5-11.7h-28.5l-4.6,11.7h-17.7l28.4-66h17.7l27.7,66H294.6z M266.7,42.2H285l-9-23.5
			L266.7,42.2z"/>
		<path class="st0" d="M357.2,17c-3-1.6-5.9-2.4-8.8-2.4c-3.3,0-6.4,0.8-9.1,2.5c-2.7,1.7-4.9,4-6.4,6.9c-1.6,2.9-2.4,6.2-2.4,9.7
			s0.8,6.8,2.4,9.7c1.6,2.9,3.7,5.2,6.4,6.9c2.7,1.7,5.8,2.5,9.1,2.5c2.7,0,5.5-0.7,8.5-2.1c3-1.4,5.6-3.3,7.9-5.7l10.1,10.8
			c-3.6,3.8-7.8,6.8-12.8,9c-4.9,2.2-9.8,3.3-14.6,3.3c-6.5,0-12.4-1.5-17.7-4.5c-5.3-3-9.4-7.1-12.4-12.3c-3-5.2-4.5-11-4.5-17.5
			c0-6.4,1.5-12.2,4.6-17.3c3.1-5.1,7.3-9.2,12.7-12.1c5.4-2.9,11.4-4.4,18-4.4c4.9,0,9.7,1,14.5,3.1c4.8,2,8.8,4.8,12.1,8.3
			l-10,12.1C362.7,20.8,360.2,18.6,357.2,17z"/>
		<path class="st0" d="M382.3,1h17.2V28h26.7V1h17.2v66h-17.2V41.7h-26.7v25.3h-17.2V1z"/>
	</g>
	<g>
		<g>
			<path class="st0" d="M0,79.9h40.3V90H26.2v36.9H13.9V90H0V79.9z"/>
			<path class="st0" d="M73.5,126.9l-6.8-13h-0.3h-8.8v13H45.2v-47h21.1c6.2,0,11,1.4,14.4,4.3c3.4,2.9,5.1,6.9,5.1,12.2
				c0,3.5-0.7,6.6-2.1,9.1c-1.4,2.6-3.5,4.6-6.2,6l9.8,15.3H73.5z M57.5,104.1h8.9c2.5,0,4.4-0.6,5.8-1.9c1.4-1.3,2-3.1,2-5.4
				c0-2.3-0.7-4-2-5.3c-1.4-1.2-3.3-1.8-5.8-1.8h-8.9V104.1z"/>
			<path class="st0" d="M107.8,114.6c1.7,1.8,4,2.7,6.6,2.7c2.6,0,4.8-0.9,6.4-2.6c1.6-1.8,2.4-4.1,2.4-7.1V79.9h12.3v27.6
				c0,4.1-0.9,7.6-2.6,10.7c-1.7,3.1-4.2,5.4-7.4,7.1c-3.2,1.7-6.9,2.5-11.2,2.5c-4.3,0-8.1-0.8-11.3-2.5c-3.2-1.7-5.7-4-7.5-7.1
				c-1.8-3.1-2.6-6.6-2.6-10.7V79.9h12.3v27.6C105.2,110.4,106.1,112.8,107.8,114.6z"/>
			<path class="st0" d="M144,79.9h13.3l13.6,27.5l13.5-27.5h13.3v47h-10.9l-0.1-29.8l-12,25.1h-7.9l-12.1-25.1v29.8H144V79.9z"/>
			<path class="st0" d="M241.5,84.2c3.3,2.9,5,6.9,5,12.2c0,5.5-1.7,9.8-5,12.9c-3.3,3.1-8,4.6-13.9,4.6h-8.4v13h-12.3v-47h20.6
				C233.5,79.9,238.2,81.3,241.5,84.2z M232.7,102.2c1.4-1.3,2-3.1,2-5.4c0-2.3-0.7-4-2-5.3c-1.4-1.2-3.3-1.8-5.8-1.8h-7.8v14.4h7.8
				C229.4,104.1,231.4,103.5,232.7,102.2z"/>
		</g>
		<g>
			<path class="st1" d="M299.4,79.9h11.4v47h-10.7l-21.3-28.1v28.1h-11.5v-47h10.8l21.4,28.3L299.4,79.9z"/>
			<path class="st1" d="M355.4,82.3c3.9,2.1,6.9,5,9.1,8.6c2.2,3.7,3.3,7.8,3.3,12.3c0,4.6-1.1,8.8-3.3,12.5
				c-2.2,3.7-5.3,6.6-9.1,8.8c-3.9,2.1-8.2,3.2-13,3.2s-9.1-1.1-13-3.2c-3.9-2.1-6.9-5-9.1-8.8c-2.2-3.7-3.3-7.9-3.3-12.5
				c0-4.6,1.1-8.7,3.3-12.3s5.2-6.5,9.1-8.6c3.9-2.1,8.2-3.1,13-3.1S351.5,80.2,355.4,82.3z M336.1,91.3c-2,1.2-3.6,2.9-4.7,5
				c-1.2,2.1-1.7,4.5-1.7,7c0,2.6,0.6,4.9,1.8,7.1c1.2,2.1,2.8,3.8,4.7,5c2,1.2,4.1,1.8,6.4,1.8s4.5-0.6,6.4-1.8
				c1.9-1.2,3.5-2.9,4.6-5c1.1-2.1,1.7-4.5,1.7-7.1c0-2.5-0.6-4.9-1.7-7c-1.1-2.1-2.6-3.8-4.6-5c-1.9-1.2-4.1-1.8-6.4-1.8
				S338.1,90.1,336.1,91.3z"/>
			<path class="st1" d="M430.8,79.9h12.6l-15.9,47h-12.6l-8.9-32l-9,32h-12.6l-15.8-47h13.2l9.2,34.3l9.2-34.3h12l9.4,34.3
				L430.8,79.9z"/>
		</g>
	</g>
</g>
</svg>
