<?xml version="1.0" encoding="utf-8"?>
<!-- Generator: Adobe Illustrator 21.0.0, SVG Export Plug-In . SVG Version: 6.00 Build 0)  -->
<!DOCTYPE svg PUBLIC "-//W3C//DTD SVG 1.1//EN" "http://www.w3.org/Graphics/SVG/1.1/DTD/svg11.dtd">
<svg version="1.1" id="Layer_1" xmlns="http://www.w3.org/2000/svg" xmlns:xlink="http://www.w3.org/1999/xlink" x="0px" y="0px"
	 viewBox="0 0 495.2 185" style="enable-background:new 0 0 495.2 185;" xml:space="preserve">
<style type="text/css">
	.st0{fill:#00458C;}
</style>
<path class="st0" d="M0,0.4v165.2h166.7V0.4H0z M133.5,123.2H33.2V92.4h100.3V123.2z M133.5,73H33.2V42.3h100.3V73z"/>
<path class="st0" d="M233,16.6c2.6,0,2.9,0,2.9-2.1v-5c0-5.6-0.3-5.9-3.8-6.5l-1.5-0.2c-0.6-0.4-0.5-1.8,0.2-2
	c3.2,0.2,5.7,0.2,8.3,0.2c2.6,0,5.1-0.1,8.3-0.2c0.7,0.2,0.7,1.6,0.2,2L246,3c-3.5,0.6-3.8,0.9-3.8,6.5v18.2c0,5.6,0.3,6,3.8,6.5
	l1.9,0.2c0.6,0.4,0.5,1.8-0.2,2c-3.4-0.2-6.1-0.2-8.6-0.2c-2.6,0-5.1,0.1-8.3,0.2c-0.7-0.2-0.7-1.6-0.2-2l1.5-0.2
	c3.5-0.6,3.8-0.9,3.8-6.5v-6.4c0-2-0.2-2.1-2.9-2.1h-14.3c-2.8,0-2.9,0.1-2.9,2.1v6.4c0,5.6,0.3,6.1,3.8,6.5l2.2,0.2
	c0.6,0.4,0.5,1.8-0.2,2c-3.7-0.2-6.4-0.2-9-0.2c-2.6,0-5.1,0.1-7.6,0.2c-0.7-0.2-0.7-1.6-0.2-2l0.9-0.2c3.4-0.9,3.8-0.9,3.8-6.5V9.6
	c0-5.6-0.3-6-3.8-6.5l-1.9-0.2c-0.6-0.4-0.5-1.8,0.2-2c3.5,0.2,6,0.2,8.6,0.2c2.6,0,5.1-0.1,8-0.2c0.7,0.2,0.7,1.6,0.2,2L219.6,3
	c-3.4,0.7-3.8,0.9-3.8,6.5v5c0,2.1,0.3,2.1,2.9,2.1H233z"/>
<path class="st0" d="M271.5,9.6c0-5.6-0.4-5.8-3.8-6.5l-1.1-0.2c-0.6-0.4-0.5-1.8,0.2-2c2.8,0.2,5.3,0.2,7.9,0.2
	c2.6,0,5.1-0.1,8.3-0.2c0.7,0.2,0.7,1.6,0.2,2L281.5,3c-3.5,0.6-3.8,0.9-3.8,6.5V21c0,8.1,2.7,13.7,10.6,13.7
	c7.3,0,10.5-5.5,10.5-13.6v-7.6c0-8.1-0.5-10-4-10.5l-1.7-0.2c-0.6-0.5-0.5-1.6,0.2-2c2.6,0.2,4.5,0.2,6.8,0.2
	c2.4,0,4.1-0.1,6.8-0.2c0.7,0.4,0.7,1.6,0.1,2L304.5,3c-2.1,0.2-2.8,2.4-2.8,10.5v8.1c0,10.4-4.8,15.9-15.1,15.9
	c-5.2,0-9.1-1.1-11.6-3.4c-2.4-2.4-3.5-6.2-3.5-11.5V9.6z"/>
<path class="st0" d="M345.3,22c0.6,1.1,2.6,4.7,2.9,5c0.3-0.2,1.8-2.8,3.3-5.7l4.1-7.8c3.9-7.5,4.3-8.9,5.6-12.7
	C363,0.9,364.7,1,366,1c2,0,4.3-0.1,6.7-0.2c0.7,0.2,0.8,1.6,0.2,2L371.1,3c-3.7,0.5-3.9,2-3.9,6.8c0,8.6,0,15.5,0.4,20.4
	c0.2,1.8,0.2,3.7,2.7,4l2.4,0.2c0.6,0.3,0.6,1.7-0.1,2c-2.9-0.2-6.1-0.2-8.1-0.2c-2.4,0-4.9,0.1-7.2,0.2c-0.6-0.4-0.7-1.7-0.1-2
	l1.8-0.2c2.6-0.3,2.6-1,2.6-4.2V11.3c0-1,0-2.2-0.2-2.4c-0.2,0-2.4,4.1-3.5,6.2l-5,9.4c-0.7,1.2-4.9,9.7-5.8,12.3
	c-0.4,0.3-1.1,0.3-1.5,0c-0.9-2.9-3.4-8.1-4.8-10.8l-5.3-10.3c-0.9-1.8-2.6-6.1-3.3-6.3c-0.3,0.4-0.4,5.9-0.5,8.1
	c-0.1,3.3-0.2,6.7-0.2,10.7c0,4.1,0.1,5.9,2.4,6.2l2.7,0.2c0.6,0.3,0.5,1.7-0.1,2c-2.1-0.2-4.5-0.2-6.7-0.2c-1.8,0-4.2,0.1-6.8,0.2
	c-0.6-0.3-0.7-1.6,0-2l1.7-0.2c2.7-0.4,2.9-1.2,3.3-4.1c0.7-4.4,1.1-17.5,1.1-23c0-2.6-0.9-3.8-3.7-4.1l-2-0.2
	c-0.5-0.4-0.6-1.7,0.2-2c2.2,0.2,4.1,0.2,6.3,0.2c1.6,0,3.3,0,5.9-0.2c0,3.6,1.5,6.2,4.2,11.6L345.3,22z"/>
<path class="st0" d="M408.7,21.1c2.1,0,2.4-0.2,1.5-2.5l-2.5-6.9c-0.7-1.9-1-2.5-1.2-2.9h-0.2c-0.2,0.3-0.6,1.1-1.3,2.8l-2.9,7.2
	c-0.9,2.2-0.7,2.4,1.1,2.4H408.7z M402.2,23.7c-1.9,0-2.1,0.1-2.8,2l-1.9,5.2c-0.9,2.6-0.7,2.9,0.9,3.3l2.2,0.4
	c0.7,0.4,0.6,1.9-0.2,2c-2-0.2-4.1-0.2-6.4-0.2c-2.3,0-4.2,0.2-5.7,0.2c-0.7-0.3-0.7-1.6-0.2-2l1.9-0.4c2.5-0.6,3.4-1.5,5-5.4
	l7.8-18.7c1.4-3.3,2-5.3,2.1-6.8c1.5-0.6,3-2.1,3.4-3.1c0.7-0.2,1.1-0.1,1.3,0.4c0.3,0.8,1.6,5,3.5,10l7.3,19.4
	c1,2.7,1.7,3.7,4.6,4.3l1.3,0.2c0.7,0.4,0.6,1.9-0.2,2c-2.1-0.2-4-0.2-6.8-0.2c-2.9,0-5.3,0.1-7.3,0.2c-0.8-0.2-0.9-1.7-0.2-2
	l1.6-0.2c2.1-0.3,2-0.8,1.1-3.3l-2-5.3c-0.7-1.9-0.9-2-2.8-2H402.2z"/>
<path class="st0" d="M475.3,13.5c0-8.1-0.5-10.2-3.5-10.5l-2.6-0.2c-0.6-0.5-0.5-1.6,0.2-2c3,0.2,4.9,0.2,7.2,0.2s4.1-0.1,6.8-0.2
	c0.7,0.4,0.7,1.6,0.1,2L481,3c-2.1,0.2-2.8,2.4-2.8,10.5v13.7c0,1.6,0,8.2,0.2,9.4c-0.2,0.5-1,0.9-1.7,0.7c-0.9-1.1-2.5-2.8-7.6-8.3
	l-12.4-13.2c-3.1-3.3-5.2-5.4-6.3-6.3c-0.3,0-0.3,0.9-0.3,3.4v10.7c0,8.1,0.5,10.3,3.5,10.5l2.6,0.2c0.7,0.5,0.5,1.6-0.2,2
	c-3-0.2-4.9-0.2-7.2-0.2s-3.9,0.1-6.8,0.2c-0.7-0.3-0.7-1.6-0.1-2l2.4-0.2c2.1-0.2,2.8-2.4,2.8-10.5V9.2c0-2.7-0.1-3.8-1.7-5
	c-0.7-0.5-2.2-1-3-1.1l-1.2-0.2c-0.6-0.5-0.6-1.7,0.2-2c3.1,0.2,5.3,0.2,7,0.2c1.1,0,2.3-0.1,3.3-0.2c1.6,3.1,4.6,6.6,8,10l7.7,7.9
	c1.8,1.8,6.5,6.9,7.4,7.6c0.5-0.2,0.5-1.3,0.5-3.3V13.5z"/>
<path class="st0" d="M215.8,87.3c0,2,0.1,2,4.1,2c5.3,0,8.1-2.1,8.1-7.7c0-4.1-2.8-7.6-8.5-7.6c-3,0-3.6,0.2-3.6,2.3V87.3z
	 M209.6,81.4c0-5.3-0.1-6.7-2-6.9l-2.3-0.3c-0.7-0.1-0.8-1.8,0-2c4.5-0.3,9-0.5,13.5-0.5c7.6,0,15.8,1.2,15.8,9.8
	c0,5.2-4.1,7.6-7.2,8.7c-0.3,0.3-0.2,0.8,0,1.2c4.1,6.8,7.6,10.8,10.3,13c1.5,1.2,3,1.6,4.3,1.7c0.3,0.3,0.3,1.1,0,1.3
	c-0.7,0.2-1.9,0.4-3.4,0.4c-4.9,0-7.8-1.5-11.4-6.1c-2-2.6-4.2-6.2-5.9-8.8c-0.7-1-2-1.3-3.3-1.3c-2.1,0-2.3,0.2-2.3,1.3v5.8
	c0,5.6,0.3,6,3.8,6.5l1.9,0.2c0.6,0.4,0.5,1.8-0.2,2c-3.4-0.2-6.1-0.2-8.6-0.2c-2.6,0-5.1,0.1-8,0.2c-0.8-0.2-0.9-1.7-0.2-2l1.2-0.2
	c3.5-0.7,3.8-0.9,3.8-6.5V81.4z"/>
<path class="st0" d="M261.7,80.4c0-5.6-0.3-5.9-3.8-6.5l-1.5-0.2c-0.6-0.4-0.5-1.8,0.2-2c3.2,0.2,5.7,0.2,8.3,0.2
	c2.6,0,5.1-0.1,8.3-0.2c0.7,0.2,0.7,1.6,0.2,2l-1.5,0.2c-3.5,0.6-3.8,0.9-3.8,6.5v18.2c0,5.6,0.3,5.9,3.8,6.5l1.5,0.2
	c0.6,0.4,0.5,1.8-0.2,2c-3.1-0.2-5.8-0.2-8.3-0.2c-2.6,0-5.1,0.1-8.3,0.2c-0.7-0.2-0.7-1.6-0.2-2l1.5-0.2c3.5-0.6,3.8-0.9,3.8-6.5
	V80.4z"/>
<path class="st0" d="M318.7,99.9c0-3.7-0.1-4.2-3.7-4.9l-2.6-0.5c-0.6-0.4-0.6-1.5,0.1-2c3.3,0.2,6.8,0.2,9.2,0.2
	c2.3,0,5-0.1,6.9-0.2c0.7,0.4,0.7,1.5,0.2,2l-1.5,0.3c-2.1,0.5-2.4,1-2.4,4.5v2.3c0,2,0.2,3.2,1.3,3.7c0.3,0.2,0.3,1-0.1,1.1
	c-0.9,0-2.6,0.5-4.9,0.9c-2.2,0.4-5,1-8.1,1c-7.2,0-13.2-1.7-17.5-6c-3.4-3.4-5-8.1-5-12.4c0-4.6,1.6-9.2,5.1-12.8
	c3.7-3.8,9.3-6.4,18-6.4c4.5,0,8.5,1.1,10.9,1.6c0.1,1.6,0.2,4.9,0.7,9.2c-0.4,0.7-1.6,0.8-2.1,0.1c-2.1-6.4-5.6-8.5-11.6-8.5
	c-8.5,0-13.8,6.6-13.8,16.1c0,10,6.2,16.8,16,16.8c4.3,0,4.9-0.8,4.9-4.1V99.9z"/>
<path class="st0" d="M374.7,87.5c2.6,0,2.9,0,2.9-2.1v-5c0-5.6-0.3-5.9-3.8-6.5l-1.5-0.2c-0.6-0.4-0.5-1.8,0.2-2
	c3.2,0.2,5.7,0.2,8.3,0.2c2.6,0,5.1-0.1,8.3-0.2c0.7,0.2,0.7,1.6,0.2,2l-1.5,0.2c-3.5,0.6-3.8,0.9-3.8,6.5v18.2c0,5.6,0.3,6,3.8,6.5
	l1.9,0.2c0.6,0.4,0.5,1.8-0.2,2c-3.4-0.2-6.1-0.2-8.6-0.2c-2.6,0-5.1,0.1-8.3,0.2c-0.7-0.2-0.7-1.6-0.2-2l1.5-0.2
	c3.5-0.6,3.8-0.9,3.8-6.5v-6.4c0-2-0.2-2.1-2.9-2.1h-14.3c-2.8,0-2.9,0.1-2.9,2.1v6.4c0,5.6,0.3,6.1,3.8,6.5l2.2,0.2
	c0.6,0.4,0.5,1.8-0.2,2c-3.7-0.2-6.4-0.2-9-0.2c-2.6,0-5.1,0.1-7.6,0.2c-0.7-0.2-0.7-1.6-0.2-2l0.9-0.2c3.4-0.9,3.8-0.9,3.8-6.5
	V80.4c0-5.6-0.3-6-3.8-6.5l-1.9-0.2c-0.6-0.4-0.5-1.8,0.2-2c3.5,0.2,6,0.2,8.6,0.2c2.6,0,5.1-0.1,8-0.2c0.7,0.2,0.7,1.6,0.2,2
	l-1.2,0.2c-3.4,0.7-3.8,0.9-3.8,6.5v5c0,2.1,0.3,2.1,2.9,2.1H374.7z"/>
<path class="st0" d="M420,76.3c0-2.1-0.1-2.1-1.7-2.1h-2.5c-5,0-7.1,0.5-9,6.1c-0.8,0.5-1.7,0.2-2-0.4c0.9-3.5,1.8-7.6,2.2-9.6
	c0.3-0.3,1.1-0.3,1.5,0c0.1,1.6,1.2,1.5,4.5,1.5h22.6c3,0,3.6-0.1,4.2-1.5c0.6-0.3,1.2-0.2,1.5,0.2c-0.7,2.1-1,6.4-0.8,9.5
	c-0.3,0.7-1.7,0.7-2,0.1c-0.6-5.3-2.7-5.9-7.6-5.9h-2.8c-1.5,0-1.8,0-1.8,2.1v22.3c0,5.6,0.3,6.1,3.8,6.5l2.2,0.2
	c0.6,0.4,0.5,1.8-0.2,2c-3.3-0.2-6.4-0.2-9-0.2c-2.6,0-5.5,0.1-9,0.2c-0.7-0.2-0.7-1.6-0.2-2l2.2-0.2c3.5-0.4,3.8-0.9,3.8-6.5V76.3z
	"/>
<path class="st0" d="M465.2,90.6c-3.9-2-7.2-5.2-7.2-9.8c0-5.9,4.6-10.1,12.8-10.1c2.8,0,4.8,0.7,7.6,1.2c0.7,1.4,1.2,4.5,1.1,8
	c-0.2,0.7-1.7,0.7-2.1,0.2c-0.7-2.8-2.8-7-7.6-7c-4.8,0-6.6,2.8-6.6,5.5c0,2.9,2.2,4.7,5.5,6.4l5,2.6c2.9,1.5,6.6,4.9,6.6,10.3
	c0,6.3-5.2,10.3-13.3,10.3c-5,0-8.2-1.7-9.4-2.5c-0.7-1.1-1.7-4.1-1.7-8.4c0.3-0.8,1.5-0.9,2.1-0.2c0.7,2.9,4.2,8.7,9.7,8.7
	c4.1,0,6.8-2.1,6.8-5.9c0-2.6-1.1-5.3-5.7-7.6L465.2,90.6z"/>
<path class="st0" d="M227.7,142.4c0,1.1,0.2,3.7,0.5,5.8c-0.2,0.4-1,0.5-1.4,0.1c-0.8-2.9-2.6-5.4-7.3-5.4c-4.5,0-9,3-9,10.2
	c0,7,4.5,11,9.5,11c4.9,0,7-3.9,7.6-5.3c0.3-0.5,1.1-0.5,1.4,0.1c-0.3,2.3-1.1,4.7-1.7,5.7c-1.5,0.3-3.5,1.1-7.1,1.1
	c-3.3,0-6.6-0.6-9.2-2.4c-2.8-1.9-5-5.1-5-9.3c0-4.3,1.8-7.4,4.4-9.5c2.6-2,6.2-3,10.2-3C224,141.4,227.3,142.4,227.7,142.4"/>
<path class="st0" d="M253.7,155.1c1.4,0,1.5-0.1,0.9-1.6L253,149c-0.4-1.2-0.6-1.6-0.8-1.9h-0.1c-0.2,0.2-0.4,0.7-0.8,1.8l-1.9,4.7
	c-0.6,1.4-0.5,1.5,0.7,1.5H253.7z M249.5,156.8c-1.2,0-1.4,0.1-1.8,1.3l-1.2,3.4c-0.6,1.7-0.4,1.9,0.6,2.1l1.4,0.3
	c0.4,0.3,0.4,1.2-0.2,1.3c-1.3-0.1-2.7-0.2-4.1-0.2c-1.5,0-2.7,0.1-3.7,0.2c-0.5-0.2-0.5-1-0.1-1.3l1.2-0.3c1.6-0.4,2.2-0.9,3.3-3.5
	l5-12.1c0.9-2.2,1.3-3.4,1.4-4.4c0.9-0.4,1.9-1.4,2.2-2c0.4-0.2,0.7-0.1,0.8,0.3c0.2,0.5,1,3.3,2.3,6.5l4.7,12.5
	c0.6,1.7,1.1,2.4,3,2.8l0.8,0.2c0.5,0.3,0.4,1.2-0.2,1.3c-1.4-0.1-2.6-0.2-4.4-0.2c-1.9,0-3.4,0-4.7,0.2c-0.5-0.2-0.6-1.1-0.1-1.3
	l1-0.2c1.4-0.2,1.3-0.5,0.7-2.2l-1.3-3.4c-0.4-1.2-0.6-1.3-1.8-1.3H249.5z"/>
<path class="st0" d="M292,155.7c0.4,0.7,1.7,3,1.9,3.2c0.2-0.1,1.2-1.8,2.2-3.7l2.6-5c2.5-4.8,2.8-5.7,3.6-8.2
	c1.2,0.1,2.2,0.2,3,0.2c1.3,0,2.8-0.1,4.3-0.2c0.5,0.2,0.5,1,0.2,1.3l-1.2,0.2c-2.4,0.3-2.5,1.3-2.5,4.4c0,5.6,0,10,0.3,13.2
	c0.1,1.2,0.1,2.4,1.7,2.6l1.5,0.2c0.4,0.2,0.4,1.1,0,1.3c-1.9-0.1-3.9-0.2-5.3-0.2c-1.5,0-3.1,0-4.6,0.2c-0.4-0.3-0.4-1.1,0-1.3
	l1.2-0.2c1.7-0.2,1.7-0.6,1.7-2.7v-12.1c0-0.6,0-1.4-0.2-1.5c-0.2,0-1.5,2.6-2.3,4l-3.2,6c-0.4,0.8-3.1,6.2-3.7,7.9
	c-0.3,0.2-0.7,0.2-1,0c-0.6-1.9-2.2-5.2-3.1-7l-3.4-6.6c-0.6-1.2-1.7-3.9-2.1-4.1c-0.2,0.3-0.3,3.8-0.3,5.3
	c-0.1,2.1-0.1,4.3-0.1,6.9c0,2.7,0.1,3.8,1.5,4l1.7,0.2c0.4,0.2,0.3,1.1-0.1,1.3c-1.4-0.1-2.9-0.2-4.3-0.2c-1.2,0-2.7,0-4.4,0.2
	c-0.4-0.2-0.4-1,0-1.3l1.1-0.2c1.7-0.3,1.9-0.8,2.2-2.6c0.4-2.8,0.7-11.3,0.7-14.9c0-1.7-0.6-2.5-2.4-2.7l-1.3-0.2
	c-0.3-0.3-0.4-1.1,0.1-1.3c1.4,0.1,2.6,0.2,4,0.2c1,0,2.1,0,3.8-0.2c0,2.3,0.9,4,2.7,7.5L292,155.7z"/>
<path class="st0" d="M328.2,148.3c0-3.4-0.1-4.2-1.3-4.4l-1.6-0.3c-0.5-0.2-0.4-1.2,0.1-1.3c2.9-0.2,5.6-0.3,8.4-0.3
	c2.9,0,4.8,0.4,6.3,0.9c1.7,0.6,4.3,2.4,4.3,6.1c0,3.6-2.4,5.3-4.4,6c-1.8,0.6-3.8,0.9-4.8,0.8c-0.3-0.3-0.3-0.7,0-0.9
	c3.3-0.7,4.9-2.6,4.9-6c0-3.5-2.2-5.4-5.7-5.4c-2.1,0-2.1,0.3-2.1,1.8v14.1c0,3.6,0.2,3.9,2.5,4.2l1.2,0.2c0.4,0.3,0.3,1.2-0.1,1.3
	c-2.2-0.1-3.9-0.2-5.6-0.2c-1.7,0-3.3,0-5.1,0.2c-0.4-0.2-0.5-1-0.1-1.3l0.8-0.2c2.3-0.5,2.5-0.6,2.5-4.2V148.3z"/>
<path class="st0" d="M368,155.1c1.4,0,1.5-0.1,0.9-1.6l-1.6-4.5c-0.4-1.2-0.6-1.6-0.8-1.9h-0.1c-0.2,0.2-0.4,0.7-0.8,1.8l-1.9,4.7
	c-0.6,1.4-0.5,1.5,0.7,1.5H368z M363.9,156.8c-1.2,0-1.4,0.1-1.8,1.3l-1.2,3.4c-0.6,1.7-0.4,1.9,0.6,2.1l1.4,0.3
	c0.4,0.3,0.4,1.2-0.2,1.3c-1.3-0.1-2.7-0.2-4.1-0.2c-1.5,0-2.7,0.1-3.7,0.2c-0.5-0.2-0.5-1-0.1-1.3l1.2-0.3c1.6-0.4,2.2-0.9,3.3-3.5
	l5-12.1c0.9-2.2,1.3-3.4,1.4-4.4c0.9-0.4,1.9-1.4,2.2-2c0.4-0.2,0.7-0.1,0.8,0.3c0.2,0.5,1,3.3,2.3,6.5l4.7,12.5
	c0.6,1.7,1.1,2.4,3,2.8l0.8,0.2c0.5,0.3,0.4,1.2-0.2,1.3c-1.4-0.1-2.6-0.2-4.4-0.2c-1.9,0-3.4,0-4.7,0.2c-0.5-0.2-0.6-1.1-0.1-1.3
	l1-0.2c1.4-0.2,1.3-0.5,0.7-2.2l-1.3-3.4c-0.4-1.2-0.6-1.3-1.8-1.3H363.9z"/>
<path class="st0" d="M395.6,147.7c0-3.6-0.2-3.8-2.5-4.2l-1-0.2c-0.4-0.3-0.3-1.2,0.1-1.3c2,0.1,3.7,0.2,5.4,0.2
	c1.7,0,3.3-0.1,5.4-0.2c0.4,0.2,0.5,1,0.1,1.3l-1,0.2c-2.3,0.4-2.5,0.6-2.5,4.2v11.8c0,3.6,0.2,3.8,2.5,4.2l1,0.2
	c0.4,0.3,0.3,1.2-0.1,1.3c-2-0.1-3.7-0.2-5.4-0.2c-1.7,0-3.3,0.1-5.4,0.2c-0.4-0.2-0.5-1-0.1-1.3l1-0.2c2.3-0.4,2.5-0.6,2.5-4.2
	V147.7z"/>
<path class="st0" d="M434.9,160.2c0-2.4-0.1-2.7-2.4-3.1l-1.7-0.3c-0.4-0.3-0.4-1,0.1-1.3c2.1,0.1,4.4,0.2,5.9,0.2
	c1.5,0,3.2-0.1,4.5-0.2c0.4,0.3,0.5,1,0.2,1.3l-0.9,0.2c-1.4,0.3-1.6,0.6-1.6,2.9v1.5c0,1.3,0.1,2,0.8,2.4c0.2,0.2,0.2,0.6-0.1,0.7
	c-0.6,0-1.7,0.3-3.1,0.6c-1.4,0.3-3.3,0.6-5.2,0.6c-4.7,0-8.5-1.1-11.3-3.9c-2.2-2.2-3.3-5.2-3.3-8c0-2.9,1-5.9,3.3-8.2
	c2.4-2.5,6-4.1,11.6-4.1c2.9,0,5.5,0.7,7,1c0,1,0.2,3.2,0.5,5.9c-0.3,0.5-1,0.5-1.4,0.1c-1.4-4.1-3.6-5.5-7.5-5.5
	c-5.5,0-8.9,4.3-8.9,10.4c0,6.5,4,10.8,10.3,10.8c2.8,0,3.1-0.5,3.1-2.6V160.2z"/>
<path class="st0" d="M475.8,150.2c0-5.2-0.3-6.6-2.3-6.8l-1.7-0.2c-0.4-0.3-0.3-1,0.1-1.3c1.9,0.1,3.1,0.2,4.7,0.2
	c1.5,0,2.7-0.1,4.4-0.2c0.4,0.3,0.4,1,0,1.3l-1.6,0.2c-1.4,0.2-1.8,1.6-1.8,6.8v8.8c0,1,0,5.3,0.2,6.1c-0.2,0.3-0.6,0.6-1.1,0.5
	c-0.6-0.7-1.6-1.8-4.9-5.4l-8-8.5c-2-2.1-3.4-3.5-4-4c-0.2,0-0.2,0.6-0.2,2.2v6.9c0,5.2,0.3,6.6,2.3,6.8l1.7,0.2
	c0.4,0.3,0.3,1-0.1,1.3c-1.9-0.1-3.1-0.2-4.7-0.2c-1.5,0-2.5,0-4.4,0.2c-0.4-0.2-0.4-1-0.1-1.3l1.6-0.2c1.4-0.2,1.8-1.6,1.8-6.8
	v-9.4c0-1.7-0.1-2.5-1.1-3.3c-0.4-0.3-1.4-0.6-1.9-0.7l-0.8-0.2c-0.4-0.3-0.4-1.1,0.1-1.3c2,0.2,3.4,0.2,4.5,0.2
	c0.7,0,1.5-0.1,2.1-0.2c1,2,3,4.2,5.1,6.5l4.9,5.1c1.2,1.2,4.2,4.5,4.8,4.9c0.3-0.1,0.3-0.8,0.3-2.1V150.2z"/>
<path class="st0" d="M485.8,176.7v-2.8h1.8c0.9,0,1.9,0.2,1.9,1.3c0,1.4-1,1.4-2.2,1.4H485.8z M485.8,177.8h1.6l2.3,3.9h1.5
	l-2.5-3.9c1.3-0.2,2.3-0.9,2.3-2.4c0-1.8-1-2.5-3.1-2.5h-3.4v8.9h1.3V177.8z M487.4,185c4.2,0,7.8-3.3,7.8-7.7
	c0-4.4-3.6-7.7-7.8-7.7c-4.2,0-7.8,3.3-7.8,7.7C479.6,181.7,483.1,185,487.4,185 M481.1,177.2c0-3.7,2.8-6.4,6.3-6.4
	c3.5,0,6.2,2.8,6.2,6.4c0,3.7-2.8,6.5-6.2,6.5C483.9,183.7,481.1,180.9,481.1,177.2"/>
</svg>
